<svg width="180" height="30" viewBox="0 0 180 30" fill="none" xmlns="http://www.w3.org/2000/svg">
<g clip-path="url(#clip0_246_418)">
<path d="M13.1636 22.8737L0 16.5473V13.1922L13.1636 6.86578V9.86441L4.16641 14.1109C3.765 14.2892 3.38665 14.4446 3.02676 14.5726C2.66687 14.7006 2.39926 14.7875 2.21932 14.824C2.41772 14.8652 2.70378 14.9429 3.0729 15.0617C3.44202 15.1806 3.80652 15.3269 4.16641 15.5051L13.1636 19.7837V22.8737Z" fill="#898989"/>
<path d="M27.107 24.6564C25.5475 24.6564 24.3017 24.2039 23.3743 23.3034C22.4469 22.4029 21.9809 21.2007 21.9809 19.6922V5.88297H16.4349V2.97119H25.2199V19.6374C25.2199 20.291 25.3999 20.8075 25.7598 21.1824C26.1197 21.5572 26.6087 21.7446 27.227 21.7446H32.2055V24.6564H27.107Z" fill="#3196D4"/>
<path d="M42.5454 24.9215C40.506 24.9215 38.8819 24.3365 37.673 23.1708C36.4642 22.0006 35.8597 20.4099 35.8597 18.3895V14.5863C35.8597 12.5476 36.4596 10.9478 37.6592 9.79127C38.8588 8.63022 40.4875 8.05426 42.5454 8.05426C44.6032 8.05426 46.2319 8.63479 47.4316 9.79127C48.6312 10.9478 49.231 12.5476 49.231 14.5863V18.3895C49.231 20.4099 48.6266 22.0052 47.4177 23.1708C46.2089 24.341 44.5847 24.9215 42.5454 24.9215ZM42.5454 22.1012C43.625 22.1012 44.4694 21.7995 45.0784 21.1961C45.6875 20.5927 45.992 19.7242 45.992 18.5952V14.3761C45.992 13.247 45.6875 12.3831 45.0784 11.7751C44.4694 11.1717 43.625 10.87 42.5454 10.87C41.4657 10.87 40.6214 11.1717 40.0123 11.7751C39.4033 12.3785 39.0987 13.247 39.0987 14.3761V18.5952C39.0987 19.7242 39.4033 20.5927 40.0123 21.1961C40.6214 21.7995 41.4657 22.1012 42.5454 22.1012Z" fill="#3196D4"/>
<path d="M56.2165 30V27.239H60.8628C61.7625 27.239 62.4731 26.9922 62.9898 26.4985C63.5066 26.0049 63.7696 25.3283 63.7696 24.4781V23.2622L63.8296 20.5287C63.5712 21.4978 63.0544 22.252 62.2839 22.7868C61.5134 23.3216 60.5583 23.5868 59.4186 23.5868C57.7207 23.5868 56.378 23.0428 55.3999 21.9549C54.4217 20.867 53.9326 19.3722 53.9326 17.4706V14.1749C53.9326 12.2916 54.4217 10.7969 55.3999 9.69067C56.378 8.5799 57.7207 8.02679 59.4186 8.02679C60.5583 8.02679 61.5087 8.29192 62.2654 8.82673C63.0221 9.36155 63.5343 10.1158 63.7927 11.0848V8.32391H66.9717V24.5421C66.9717 26.2243 66.4272 27.559 65.3383 28.5372C64.2494 29.5154 62.7637 30.0091 60.8859 30.0091H56.2073L56.2165 30ZM60.4752 20.8807C61.4949 20.8807 62.2977 20.5698 62.8883 19.9436C63.4789 19.3174 63.7742 18.4443 63.7742 17.3152V14.344C63.7742 13.2333 63.4789 12.3693 62.8883 11.7431C62.2977 11.1168 61.4949 10.806 60.4752 10.806C59.4555 10.806 58.6019 11.1031 58.0298 11.6974C57.4577 12.2916 57.1762 13.1053 57.1762 14.1338V17.5209C57.1762 18.5723 57.4623 19.3905 58.0298 19.9847C58.5973 20.579 59.414 20.8761 60.4752 20.8761V20.8807Z" fill="#3196D4"/>
<path d="M74.2064 30V27.239H78.8527C79.7524 27.239 80.4629 26.9922 80.9797 26.4985C81.5011 26.0049 81.7595 25.3283 81.7595 24.4781V23.2622L81.8194 20.5287C81.5611 21.4978 81.0443 22.252 80.2738 22.7868C79.5032 23.3216 78.5481 23.5868 77.4085 23.5868C75.7106 23.5868 74.3679 23.0428 73.3897 21.9549C72.4116 20.867 71.9225 19.3722 71.9225 17.4706V14.1749C71.9225 12.2916 72.4116 10.7969 73.3897 9.69067C74.3679 8.5799 75.7106 8.02679 77.4085 8.02679C78.5481 8.02679 79.4986 8.29192 80.2553 8.82673C81.0166 9.36155 81.5241 10.1158 81.7825 11.0848V8.32391H84.9615V24.5421C84.9615 26.2243 84.4171 27.559 83.3282 28.5372C82.2393 29.5154 80.7536 30.0091 78.8757 30.0091H74.1972L74.2064 30ZM78.4651 20.8807C79.4848 20.8807 80.2876 20.5698 80.8782 19.9436C81.4688 19.3174 81.7641 18.4443 81.7641 17.3152V14.344C81.7641 13.2333 81.4688 12.3693 80.8782 11.7431C80.2876 11.1168 79.4848 10.806 78.4651 10.806C77.4454 10.806 76.5918 11.1031 76.0197 11.6974C75.4475 12.2916 75.1661 13.1053 75.1661 14.1338V17.5209C75.1661 18.5723 75.4522 19.3905 76.0197 19.9847C76.5872 20.579 77.4039 20.8761 78.4651 20.8761V20.8807Z" fill="#3196D4"/>
<path d="M96.515 24.9535C94.4941 24.9535 92.8746 24.3684 91.6565 23.2028C90.4384 22.0326 89.8293 20.4418 89.8293 18.4214V14.5589C89.8293 12.5385 90.4384 10.9431 91.6565 9.77752C92.8746 8.60732 94.4941 8.02679 96.515 8.02679C97.8761 8.02679 99.0527 8.29192 100.054 8.81302C101.055 9.3387 101.826 10.0746 102.379 11.0254C102.928 11.9762 103.205 13.087 103.205 14.3532V17.2924H92.953V18.6271C92.953 19.7745 93.2714 20.6658 93.9127 21.3012C94.554 21.9366 95.4215 22.252 96.5196 22.252C97.4193 22.252 98.1668 22.0874 98.7666 21.7629C99.3664 21.4383 99.7263 20.9858 99.8463 20.4099H103.053C102.832 21.7949 102.13 22.9011 100.94 23.7239C99.7494 24.5467 98.2775 24.9581 96.5196 24.9581L96.515 24.9535ZM92.9484 14.3486V15.0343H100.086V14.3212C100.086 13.1144 99.7771 12.1819 99.1588 11.5282C98.5405 10.8746 97.6592 10.55 96.5196 10.55C95.3799 10.55 94.4987 10.8837 93.8804 11.5465C93.2621 12.2093 92.953 13.1464 92.953 14.3532L92.9484 14.3486Z" fill="#3196D4"/>
<path d="M113.845 24.9215C111.944 24.9215 110.458 24.4964 109.379 23.6462C108.299 22.796 107.759 21.6075 107.759 20.0808H110.966C110.966 20.7756 111.215 21.315 111.713 21.6989C112.212 22.0829 112.922 22.2795 113.84 22.2795H115.16C116.101 22.2795 116.83 22.0875 117.347 21.6989C117.868 21.315 118.127 20.7619 118.127 20.0488C118.127 18.8009 117.458 18.0878 116.12 17.9095L111.773 17.3153C110.555 17.1553 109.614 16.6753 108.954 15.8754C108.294 15.0754 107.967 14.0286 107.967 12.7396C107.967 11.254 108.47 10.1021 109.48 9.2793C110.491 8.4565 111.926 8.0451 113.785 8.0451H115.132C116.853 8.0451 118.247 8.45193 119.317 9.26101C120.388 10.0747 120.95 11.1443 121.01 12.4699H117.771C117.73 11.9351 117.476 11.4963 117.006 11.1489C116.535 10.8015 115.912 10.6278 115.132 10.6278H113.785C112.927 10.6278 112.262 10.8152 111.792 11.1946C111.321 11.5694 111.086 12.0677 111.086 12.6802C111.086 13.7087 111.653 14.3029 112.793 14.4629L116.872 14.9977C119.811 15.3954 121.278 17.0684 121.278 20.0168C121.278 21.5801 120.747 22.7914 119.691 23.6416C118.63 24.4919 117.121 24.917 115.165 24.917H113.845V24.9215Z" fill="#3196D4"/>
<path d="M134.142 24.6564C132.684 24.6564 131.521 24.2405 130.663 23.4085C129.805 22.5766 129.376 21.4475 129.376 20.0213V11.2266H124.729V8.31481H129.376V3.71173H132.615V8.31481H139.272V11.2266H132.615V19.9893C132.615 20.5059 132.767 20.9264 133.062 21.251C133.362 21.5755 133.773 21.7401 134.294 21.7401H139.12V24.6519H134.142V24.6564Z" fill="#3196D4"/>
<path d="M150.909 27.9202L161.466 0H164.852L154.296 27.9202H150.909Z" fill="#898989"/>
<path d="M166.841 22.8737V19.8431L175.806 15.5965C176.207 15.4183 176.586 15.272 176.946 15.1532C177.305 15.0343 177.578 14.9566 177.753 14.9155C177.555 14.856 177.268 14.7692 176.899 14.6503C176.53 14.5315 176.166 14.3852 175.806 14.2024L166.841 9.95583V6.86578L180.005 13.1922V16.5473L166.841 22.8737Z" fill="#898989"/>
</g>
<defs>
<clipPath id="clip0_246_418">
<rect width="180" height="30" fill="white"/>
</clipPath>
</defs>
</svg>
